<svg xmlns="http://www.w3.org/2000/svg" xmlns:xlink="http://www.w3.org/1999/xlink" preserveAspectRatio="xMidYMid meet" version="1.0" viewBox="0.0 3.0 34.0 30.0" zoomAndPan="magnify" style="fill: rgb(0, 0, 0);" original_string_length="627"><g id="__id110_s8dey1ljvr"><path d="M0 29c0 2.209 1.791 4 4 4h24c2.209 0 4-1.791 4-4V12c0-2.209-1.791-4-4-4h-9c-3.562 0-3-5-8.438-5H4C1.791 3 0 4.791 0 7v22z" style="fill:#226699;"></path></g><g id="__id111_s8dey1ljvr"><path d="M30 10h-6.562C18 10 18.562 15 15 15H6c-2.209 0-4 1.791-4 4v10c0 .553-.448 1-1 1s-1-.447-1-1c0 2.209 1.791 4 4 4h26c2.209 0 4-1.791 4-4V14c0-2.209-1.791-4-4-4z" style="fill: #55acee;"></path></g></svg>