<svg fill="#8e96bd" viewBox="0 0 24 24" id="add-file-2" data-name="Flat Color" xmlns="http://www.w3.org/2000/svg" class="icon flat-color" stroke="#8e96bd"><g id="SVGRepo_bgCarrier" stroke-width="0"></g><g id="SVGRepo_tracerCarrier" stroke-linecap="round" stroke-linejoin="round" stroke="#CCCCCC" stroke-width="0.048"></g><g id="SVGRepo_iconCarrier"><path id="primary" d="M19.71,6.29l-4-4A1,1,0,0,0,15,2H6A2,2,0,0,0,4,4V20a2,2,0,0,0,2,2H18a2,2,0,0,0,2-2V7A1,1,0,0,0,19.71,6.29Z" style="fill: #171924000000;"></path><path id="secondary" d="M12,16a1,1,0,0,1-1-1V13H9a1,1,0,0,1,0-2h2V9a1,1,0,0,1,2,0v2h2a1,1,0,0,1,0,2H13v2A1,1,0,0,1,12,16Z" style="fill: #171924;"></path></g></svg>